<svg width="18" height="18" viewBox="0 0 18 18" fill="none" xmlns="http://www.w3.org/2000/svg">
<path d="M16.2911 1.70889L16.2918 1.70956C17.3311 2.72925 17.9 4.10182 17.9 5.57381C17.9 7.02546 17.3313 8.39852 16.2911 9.43872C15.2509 10.4789 13.8778 11.0476 12.4262 11.0476C11.6809 11.0476 10.9352 10.8907 10.248 10.5962L10.1858 10.5695L10.1379 10.6174L7.24116 13.5142C7.1917 13.5637 7.11074 13.5815 7.03515 13.5674L6.31977 13.3687L6.1493 13.3213L6.19666 13.4918L6.39643 14.211L6.39585 14.2112L6.39994 14.2214C6.4208 14.2735 6.40284 14.3525 6.34216 14.4132L5.92263 14.8327C5.87317 14.8822 5.79221 14.9001 5.71662 14.8859L5.00124 14.6872L4.83077 14.6399L4.87812 14.8103L5.0779 15.5295L5.07732 15.5297L5.0814 15.5399C5.10227 15.5921 5.0843 15.6711 5.02363 15.7317L4.6041 16.1513C4.55463 16.2007 4.47367 16.2186 4.39807 16.2045L3.6827 16.0058L3.51223 15.9584L3.55959 16.1289L3.75936 16.8481L3.75878 16.8482L3.76287 16.8584C3.78373 16.9106 3.76577 16.9896 3.70509 17.0503L2.92596 17.8294C2.88006 17.8753 2.8243 17.9 2.77691 17.9H0.319645C0.277171 17.9 0.26042 17.8985 0.244499 17.8906L0.238143 17.8874L0.2314 17.8852C0.205503 17.8765 0.162461 17.8416 0.129399 17.7755C0.125033 17.7667 0.122281 17.7572 0.116992 17.736L0.116401 17.7336C0.11296 17.7198 0.10816 17.7006 0.1 17.6795V15.2431C0.1 15.1957 0.124701 15.1399 0.170599 15.094L7.40256 7.86205L7.45104 7.81358L7.42331 7.75089C6.52112 5.71117 6.97214 3.29803 8.56128 1.70889L8.56195 1.70821C9.58164 0.668914 10.9542 0.1 12.4262 0.1C13.8778 0.1 15.2509 0.668688 16.2911 1.70889ZM2.63707 17.4807H2.67849L2.70778 17.4514L3.26716 16.892L3.3076 16.8516L3.29325 16.7962L3.01377 15.7183C3.01374 15.7181 3.01371 15.718 3.01368 15.7179C2.99651 15.6489 3.00311 15.6035 3.01994 15.5782L2.86603 15.452L1.00809 17.31L0.83738 17.4807H1.0788H2.63707ZM4.35004 15.7394L4.40541 15.7538L4.44585 15.7133L4.58569 15.5735L4.62614 15.533L4.61178 15.4777L4.33231 14.3997C4.33227 14.3996 4.33224 14.3994 4.3322 14.3993C4.31505 14.3304 4.32165 14.2849 4.33848 14.2597L4.18456 14.1335L3.00587 15.3122L3.10821 15.4778C3.16435 15.4591 3.22096 15.4473 3.27171 15.4599C3.27183 15.4599 3.27196 15.4599 3.27208 15.4599L4.35004 15.7394ZM5.68689 14.4204L5.74749 14.4373L5.78891 14.3899L5.92875 14.2301L5.96356 14.1903L5.9503 14.1392L5.67082 13.0612C5.67078 13.0611 5.67075 13.0609 5.67071 13.0608C5.65356 12.9919 5.66016 12.9464 5.67699 12.9212L5.52307 12.795L4.34438 13.9737L4.44672 14.1393C4.50259 14.1206 4.55893 14.1089 4.60949 14.1212L5.68689 14.4204ZM10.2838 10.0584L10.2849 10.0589C10.9574 10.385 11.7314 10.5684 12.4861 10.5684C13.8306 10.5684 15.0948 10.0588 16.053 9.10068C17.0104 8.14327 17.5406 6.87934 17.5406 5.53385C17.5406 4.18836 17.0104 2.92443 16.053 1.96703C15.0955 1.00962 13.8316 0.479356 12.4861 0.479356C11.1406 0.479356 9.8767 1.00962 8.9193 1.96703C7.3909 3.49542 7.00351 5.79877 7.94107 7.73503L7.94107 7.73504L7.94163 7.73618C7.98248 7.81787 7.96963 7.91115 7.90043 7.98034L0.568579 15.3122L0.53929 15.3415V15.3829V16.9412V17.1829L0.710064 17.0118L11.7778 5.92414L11.8383 5.86354L11.7877 5.79445C11.2164 5.01374 11.2744 3.9103 11.9775 3.20723C12.3588 2.82592 12.853 2.6172 13.3851 2.6172C13.9173 2.6172 14.4115 2.82592 14.7928 3.20723C15.5728 3.98726 15.5728 5.24248 14.7928 6.02252C14.4115 6.40383 13.9173 6.61254 13.3851 6.61254C12.9469 6.61254 12.5478 6.47947 12.2051 6.23192L12.136 6.18205L12.0758 6.24227L5.66292 12.6551L5.76525 12.8207C5.82141 12.802 5.87803 12.7902 5.92878 12.8028C5.9289 12.8028 5.92901 12.8029 5.92913 12.8029L7.00709 13.0824L7.06267 13.0968L7.10314 13.056L10.0396 10.0996C10.0397 10.0995 10.0397 10.0995 10.0397 10.0995C10.1089 10.0304 10.2021 10.0175 10.2838 10.0584ZM14.4947 3.52529L14.4947 3.52525L14.492 3.52273C14.1958 3.24769 13.8125 3.07647 13.3851 3.07647C12.9608 3.07647 12.5752 3.22563 12.2756 3.52529C11.6572 4.1437 11.6572 5.126 12.2756 5.74441C12.5752 6.04408 12.9608 6.19323 13.3851 6.19323C13.8094 6.19323 14.195 6.04408 14.4947 5.74441C15.1131 5.126 15.1131 4.1437 14.4947 3.52529Z" fill="#3C3C3B" stroke="black" stroke-width="0.2"/>
</svg>
